<?xml version="1.0" encoding="UTF-8"?>
<svg width="32px" height="32px" viewBox="0 0 32 32" version="1.1" xmlns="http://www.w3.org/2000/svg">
    <g stroke="none" stroke-width="1" fill="none" fill-rule="evenodd">
        <path d="M16,10 C18.209139,10 20,11.790861 20,14 C20,16.209139 18.209139,18 16,18 C13.790861,18 12,16.209139 12,14 C12,11.790861 13.790861,10 16,10 Z M16,12 C14.8954305,12 14,12.8954305 14,14 C14,15.1045695 14.8954305,16 16,16 C17.1045695,16 18,15.1045695 18,14 C18,12.8954305 17.1045695,12 16,12 Z" fill="#80FF00"/>
        <path d="M27.5,14 L24.5,14 C24.2238576,14 24,13.7761424 24,13.5 C24,13.2238576 24.2238576,13 24.5,13 L27.5,13 C27.7761424,13 28,13.2238576 28,13.5 C28,13.7761424 27.7761424,14 27.5,14 Z M7.5,14 L4.5,14 C4.22385763,14 4,13.7761424 4,13.5 C4,13.2238576 4.22385763,13 4.5,13 L7.5,13 C7.77614237,13 8,13.2238576 8,13.5 C8,13.7761424 7.77614237,14 7.5,14 Z" fill="#80FF00"/>
        <path d="M16,4 C16.2761424,4 16.5,4.22385763 16.5,4.5 L16.5,7.5 C16.5,7.77614237 16.2761424,8 16,8 C15.7238576,8 15.5,7.77614237 15.5,7.5 L15.5,4.5 C15.5,4.22385763 15.7238576,4 16,4 Z M16,24 C16.2761424,24 16.5,24.2238576 16.5,24.5 L16.5,27.5 C16.5,27.7761424 16.2761424,28 16,28 C15.7238576,28 15.5,27.7761424 15.5,27.5 L15.5,24.5 C15.5,24.2238576 15.7238576,24 16,24 Z" fill="#80FF00"/>
        <path d="M22.5,6.5 C22.7761424,6.5 23,6.72385763 23,7 C23,7.27614237 22.7761424,7.5 22.5,7.5 L19.5,7.5 C19.2238576,7.5 19,7.27614237 19,7 C19,6.72385763 19.2238576,6.5 19.5,6.5 L22.5,6.5 Z M12.5,6.5 C12.7761424,6.5 13,6.72385763 13,7 C13,7.27614237 12.7761424,7.5 12.5,7.5 L9.5,7.5 C9.22385763,7.5 9,7.27614237 9,7 C9,6.72385763 9.22385763,6.5 9.5,6.5 L12.5,6.5 Z" fill="#80FF00"/>
        <path d="M22.5,24.5 C22.7761424,24.5 23,24.7238576 23,25 C23,25.2761424 22.7761424,25.5 22.5,25.5 L19.5,25.5 C19.2238576,25.5 19,25.2761424 19,25 C19,24.7238576 19.2238576,24.5 19.5,24.5 L22.5,24.5 Z M12.5,24.5 C12.7761424,24.5 13,24.7238576 13,25 C13,25.2761424 12.7761424,25.5 12.5,25.5 L9.5,25.5 C9.22385763,25.5 9,25.2761424 9,25 C9,24.7238576 9.22385763,24.5 9.5,24.5 L12.5,24.5 Z" fill="#80FF00"/>
    </g>
</svg> 