<svg xmlns="http://www.w3.org/2000/svg" fill-rule="evenodd" clip-rule="evenodd" image-rendering="optimizeQuality" shape-rendering="geometricPrecision" text-rendering="geometricPrecision" viewBox="0 0 70553 70553" id="Leather">
  <path d="M31468 6731c-3002,5843 -9529,8967 -15988,7604l-3912 6263c5364,2245 8951,7515 8951,13443 0,6346 -4097,11894 -10017,13840l4812 7792c1942,-928 4099,-1422 6278,-1422 6173,0 11606,3878 13684,9571 2079,-5693 7512,-9571 13685,-9571 2179,0 4336,494 6278,1422l4812 -7792c-5920,-1946 -10017,-7494 -10017,-13840 0,-5928 3586,-11198 8951,-13443l-3912 -6263c-3784,799 -7658,72 -10848,-1963 -2175,-1388 -3956,-3337 -5140,-5641l-7617 0z" fill="#000000" class="color000000 svgShape"></path>
</svg>
