<svg width="39" height="39" viewBox="0 0 39 39" fill="none" xmlns="http://www.w3.org/2000/svg">
<path d="M5 4V7H7.5V9.5H10V7H8V4H5Z" fill="#D9D9D9"/>
<path d="M18.5 5.5V0H20.5V5.5H18.5Z" fill="#D9D9D9"/>
<path d="M29 6.5V9.5H32V7H34V4.5H31V6.5H29Z" fill="#D9D9D9"/>
<path d="M34 21V18.5H39V21H34Z" fill="#D9D9D9"/>
<path d="M0 21V18.5H5V21H0Z" fill="#D9D9D9"/>
<path d="M10 34V31H7.5V33H5V36H7.5V34H10Z" fill="#D9D9D9"/>
<path d="M18.5 39V34H20.5V39H18.5Z" fill="#D9D9D9"/>
<path d="M29 34V31H31.5V33H34V36H31V34H29Z" fill="#D9D9D9"/>
<path fill-rule="evenodd" clip-rule="evenodd" d="M6.5 17V22.5H10V24.5H8V26.5H10V29H12.5V31H14.5V33.5H16.5V32H18.5V29H12.5V26.5H18.5V9.5H16.5V7H14.5V9H12.5V11H10V13H8V15H10V17H6.5ZM12.5 26.5H10V24.5H12.5V26.5ZM12.5 17.5V11.5H14.5V15H16.5V17.5H12.5ZM12.5 20.5V22.5H14.5V24.5H16.5V22.5H14.5V20.5H12.5Z" fill="#D9D9D9"/>
<path fill-rule="evenodd" clip-rule="evenodd" d="M20.5 27V9H22.5V7H24.5V13.5H27V11H29V13.5H31V15H29V17.5H32.5V22.5H29V24.5H31V27H29V25H26.5V27H20.5ZM22.5 15V17.5H24.5V22.5H22.5V24.5H24.5V22.5H27V17.5H24.5V15H22.5Z" fill="#D9D9D9"/>
<path d="M26.5 29V27H29V29H26.5Z" fill="#D9D9D9"/>
<path d="M26.5 29V31H24.5V33.5H22.5V32H20.5V29H26.5Z" fill="#D9D9D9"/>
</svg>
