<svg width="39" height="42" viewBox="0 0 39 42" fill="none" xmlns="http://www.w3.org/2000/svg">
<path fill-rule="evenodd" clip-rule="evenodd" d="M4.33582 0V6.81343H6.81343V8.67164H11.7687V11.1493H6.81343V19.8209H1.85821V22.2985H0V24.1567H1.85821V26.0149H4.33582V27.8731H6.81343V30.3507H4.33582V32.209H1.85821V35.9254H6.81343V37.7836H9.29105V39.6418H13.6269V41.5H16.1045V29.1119H17.9627V31.5896H21V29.1119H22.9179V41.5H24.7761V39.6418H29.1119V37.7836H31.5896V35.9254H36.5448V32.209H34.0672V30.3507H32.209V27.8731H34.0672V26.0149H36.5448V24.1567H38.403V22.2985H36.5448V19.8209H32.209V11.1493H26.6343V8.67164H32.209V6.81343H34.0672V0H32.209V1.85821H29.7313V4.33582H8.67164V1.85821H6.19403V0H4.33582ZM26.6343 11.1493L26.6343 13.6269H27.8731V16.1045H26.6343V18.5821H24.1567V16.1045H22.9179V13.6269H24.1567V11.1493H26.6343ZM11.7687 11.1493H14.2463V13.6269H15.4851V16.1045H14.2463V17.9627H11.7687V16.1045H10.5299V13.6269H11.7687V11.1493ZM16.7239 15.4851V20.4403H18.5821V22.2985H19.8209V20.4403H21.6791V15.4851H19.8209V17.9627H18.5821V15.4851H16.7239ZM16 27V29H12V27H16ZM9 25H12V27H9V25ZM7 23H9V25H7V23ZM7 23H2V21.5H7V23ZM23 27V29H27V27H30V25H32V23H36.5V21.5H32V23H30V25H27V27H23Z" fill="#D9D9D9"/>
<path d="M18 41.5V37H21V41.5H18Z" fill="#D9D9D9"/>
<path d="M18 35.5V33H21V35.5H18Z" fill="#D9D9D9"/>
</svg>
