<svg xmlns="http://www.w3.org/2000/svg" enable-background="new 0 0 74 74" viewBox="0 0 74 74" id="Cudgel">
  <path d="M69.7,4.2C69.4,3.9,69,3.8,68.6,4l-4.8,2c-3.2-2.1-6.4-2.4-8.3-0.7c0,0-0.1,0.1-0.1,0.1c0,0,0,0,0,0c0,0,0,0,0,0l-6.4,7.6
		l-6.8-2.8c-0.4-0.2-0.8-0.1-1.1,0.2c-0.3,0.3-0.4,0.7-0.2,1.1l3,7.4l-4.6,5.5l-7-2.9c-0.4-0.2-0.8-0.1-1.1,0.2
		c-0.3,0.3-0.4,0.7-0.2,1.1l3.1,7.6l-4.9,5.8l-5.8-2.4c-0.4-0.2-0.8-0.1-1.1,0.2c-0.3,0.3-0.4,0.7-0.2,1.1l2.6,6.4l-7.4,8.7
		c0,0,0,0,0,0L5.4,62.2C4.5,63.1,4,64.3,4,65.6c0,1.2,0.5,2.3,1.3,3.2c0,0,0.1,0.1,0.1,0.1c0.9,0.8,2,1.2,3.1,1.2
		c1.2,0,2.5-0.5,3.4-1.4l11.9-11.9c0,0,0,0,0,0l12.2-10.3l6.3,2.6c0.1,0,0.3,0.1,0.4,0.1c0.3,0,0.5-0.1,0.7-0.3
		c0.3-0.3,0.4-0.7,0.2-1.1L41.2,42l6.2-5.2l6.5,2.7c0.1,0,0.3,0.1,0.4,0.1c0.3,0,0.5-0.1,0.7-0.3c0.3-0.3,0.4-0.7,0.2-1.1l-2.4-5.9
		l5.8-4.9l7.4,3c0.1,0.1,0.3,0.1,0.4,0.1c0.3,0,0.5-0.1,0.7-0.3c0.3-0.3,0.4-0.7,0.2-1.1l-2.8-6.7l4.2-3.5c1.8-1.8,1.5-5.3-0.7-8.5
		l1.9-4.9C70.1,4.9,70,4.5,69.7,4.2z M10.5,67.3c-1,1-2.7,1.1-3.7,0.1c0,0,0,0,0,0C6.3,66.9,6,66.3,6,65.6c0-0.7,0.3-1.5,0.8-2
		l10.5-10.5c0,0,0,0,0,0.1c0,0.1,0.1,0.1,0.1,0.2c0.1,0.1,0.1,0.2,0.2,0.4c0,0.1,0.1,0.1,0.1,0.2c0.3,0.5,0.7,1,1.1,1.4
		c0.1,0.1,0.3,0.2,0.4,0.3c0,0,0,0,0.1,0.1c0.1,0.1,0.2,0.2,0.3,0.3c0,0,0.1,0.1,0.1,0.1c0.1,0.1,0.2,0.1,0.3,0.2
		c0.1,0,0.1,0.1,0.2,0.1c0.1,0.1,0.2,0.1,0.3,0.2c0.1,0,0.1,0.1,0.2,0.1c0,0,0.1,0,0.1,0.1L10.5,67.3z M26.9,39l-0.8,0.9l-1.3-3.2
		l3,1.2L26.9,39z M67.2,6.8l-1.9,4.8c-0.9-0.5-2.3-2-2.8-2.8L67.2,6.8z M43.6,13l4,1.6l-2.2,2.6L43.6,13z M33.7,24.4l4.2,1.7
		l-2.3,2.8L33.7,24.4z M37.7,45l2-1.7l1.2,3L37.7,45z M49.1,35.3l2-1.7l0,0l1.3,3.1L49.1,35.3z M57.8,21.3L33.6,41.9
		c-0.2,0.2-0.4,0.2-0.6,0.2c-0.3,0-0.6-0.1-0.8-0.4c-0.4-0.4-0.3-1.1,0.1-1.4l24.3-20.6c0.4-0.4,1.1-0.3,1.4,0.1
		C58.3,20.3,58.3,21,57.8,21.3z M64.5,27.5l-4.2-1.7l2.6-2.2L64.5,27.5z M67.3,17.2l-0.2,0.2c-1.4,1.1-4.8,0.4-7.8-2.7
		c-1.5-1.5-2.5-3.2-2.9-4.8c-0.2-0.8-0.5-2.3,0.4-3.2c0,0,0,0,0,0C57.7,5.9,59.5,6,61.5,7L61,7.2c-0.1,0.1-0.2,0.1-0.3,0.2
		c-1.1,1.1,0.3,2.9,1.6,4.3c0.6,0.6,1.3,1.2,1.9,1.5c0.6,0.4,1.1,0.5,1.4,0.5c0.4,0,0.8-0.2,1-0.4c0.1-0.1,0.2-0.2,0.2-0.3l0.2-0.5
		C68.1,14.5,68.2,16.4,67.3,17.2z" fill="#000000" class="color000000 svgShape"></path>
</svg>
