<svg width="41" height="41" viewBox="0 0 41 41" fill="none" xmlns="http://www.w3.org/2000/svg">
<path fill-rule="evenodd" clip-rule="evenodd" d="M0 19.5682V21.4318H3.72727V22.3636H10.25V24.2273H11.1818V28.8864H8.38636V29.8182H6.52273V34.4773H4.65909V36.3409H7.45455V34.4773H10.25V32.6136H13.0455V29.8182H13.9773V28.8864H15.8409V30.75H18.6364V38.2045H19.5682V41H21.4318V38.2045H22.3636V30.75H24.2273V28.8864H27.9545V30.75H28.8864V32.6136H30.75V34.4773H33.4886L33.5 36.3409H36.3409V34.4773H34.4773V29.8182H31.6818V28.8864H28.8864V24.2273H30.75V22.3636H37.2727V21.4318H41V19.5682H37.2727V18.6364H30.75V16.7727H28.8864V12.1136H31.6818V11.1818H33.5455V6.52273H36.3409V4.65909H33.5455V5.59091H29.8182V7.45455H27.9545V11.1818H27.0227V12.1136H24.2273V10.25H22.3636V2.79545H21.4318V0H19.5682V2.79545H18.6364V10.25H15.8409V12.1136H13.0455V10.25H12.1136V7.45455H10.25V5.59091H6.52273V4.65909H4.65909V6.52273H6.52273V11.1818H8.38636V12.1136H11.1818V16.7727H10.25V18.6364H3.72727V19.5682H0ZM15.8409 18.6364V19.5682H13.9773V17.7045H14.9091V16.7727H18.6364V17.7045H19.5682V19.5682H17.7045V18.6364H15.8409ZM23.2955 19.5682V18.6364H25V19.5682H27V17.7045H26V16.7727H22.3636V17.7045H21.3064V19.5682H23.2955ZM15.8409 22.3636V26.0909H16.7727V27.0227H24.2273V26.0909H25.1591V22.3636H23.2955V24.2273H17.7045V22.3636H15.8409Z" fill="#D9D9D9"/>
</svg>
