<svg width="39" height="41" viewBox="0 0 39 41" fill="none" xmlns="http://www.w3.org/2000/svg">
<path fill-rule="evenodd" clip-rule="evenodd" d="M13 0H8.5V2.5H6V6.5H2.5V8.5H0V15H5V17.5H16V15H18V4.5H16V2.5H13V0ZM13.5 13H16V15H13.5V13ZM11 11V13H13.5V11H11ZM11 11H8.5V8.5H11V11Z" fill="#D9D9D9"/>
<path d="M21 15V4.5H23.5V2.5H26V0H30.5V2.5H33V6.5H36.5V9H39V15H34V17.5H23V15H25.5V13H28V11H30.5V8.5H28V11H25.5V13H23V15H21Z" fill="#D9D9D9"/>
<path fill-rule="evenodd" clip-rule="evenodd" d="M16 22V20H5V22H0V28H2.5V30H6V34H8.5V36.5H13.5V31.5H16V24H13.5V22H16ZM11 26.5H13.5V24H11V26.5ZM11 26.5H8.5V28.5H11V26.5Z" fill="#D9D9D9"/>
<path d="M23 22V20H34V22H39V28H36.5V30H33V34H30.5V36.5H25.5V31.5H23V24H25.5V26.5H28V28.5H30.5V26.5H28V24H25.5V22H23Z" fill="#D9D9D9"/>
<path d="M18.5 41H13.5V38.5H16V36.5H18V22H21V38.5H18.5V41Z" fill="#D9D9D9"/>
</svg>
