<svg xmlns="http://www.w3.org/2000/svg" enable-background="new 0 0 32 32" viewBox="0 0 32 32" id="anvil">
  <g id="Anvil" fill="#000000" class="color000000 svgShape">
    <path d="M21.647 4.633H3c-.553 0-1 .447-1 1v7.643c0 2.034 1.655 3.689 3.689 3.689h13.269c2.034 0 3.689-1.655 3.689-3.689V5.633C22.647 5.08 22.2 4.633 21.647 4.633zM29 4.63h-5.63c.18.29.28.64.28 1v6.17h.18c3.4 0 6.17-2.77 6.17-6.17C30 5.08 29.55 4.63 29 4.63zM5.85 17.96c.37 1.03.4 2 .07 2.94h10.15c-.34-.98-.34-1.95 0-2.94H5.85zM17.398 21.899H4.56c-1.411 0-2.56 1.148-2.56 2.56v1.908c0 .553.447 1 1 1h15.958c.553 0 1-.447 1-1v-1.908C19.958 23.048 18.81 21.899 17.398 21.899z" fill="#000000" class="color000000 svgShape"></path>
  </g>
</svg>
