<svg width="34" height="39" viewBox="0 0 34 39" fill="none" xmlns="http://www.w3.org/2000/svg">
<path fill-rule="evenodd" clip-rule="evenodd" d="M0 2.29412H5.1V5.16176H12.4667V2.29412H14.7333V0H19.2667V2.29412H22.1V5.16176H28.9V2.29412H34V24.0882H31.7333V28.6765H28.9V31.5441H26.0667V33.8382H21.5333V36.7059H19.2667V39H14.7333V36.7059H12.4667V33.8382H7.93333V31.5441H5.1V28.6765H2.26667V24.0882H0V2.29412ZM5.1 12.0441V9.75H7.93333V12.0441H5.1ZM8.5 19.5V17.2059H9.63333V16.0588H10.7667V14.9118H14.7333V9.75H19.2667V14.9118H23.2333V16.0588H24.3667V17.2059H25.5V19.5H24.3667V21.2206H22.1V22.9412H20.9667V24.6618H19.2667V29.25H14.7333V24.6618H13.6V22.9412H11.9V21.2206H9.63333V19.5H8.5ZM28.9 9.75V12.0441H26.0667V9.75H28.9Z" fill="#D9D9D9"/>
</svg>
